<svg width="18" height="18" viewBox="0 0 15 15" fill="none" xmlns="http://www.w3.org/2000/svg">
<path d="M7.4347 10.3952C5.77643 10.3952 4.43203 9.0529 4.43203 7.39821C4.43203 5.74252 5.77643 4.4012 7.4347 4.4012C9.09296 4.4012 10.4354 5.74252 10.4354 7.39821C10.4354 9.0529 9.09296 10.3952 7.4347 10.3952Z" fill="#BDBDBD"/>
<path fill-rule="evenodd" clip-rule="evenodd" d="M14.4366 12.7176C14.6365 12.1776 14.7404 11.6078 14.7474 11.0329L14.7584 11.0339C14.8014 10.0799 14.8014 9.81838 14.8014 7.38739C14.8014 4.95525 14.7904 4.68862 14.7474 3.73952C14.7384 3.17066 14.6325 2.60679 14.4366 2.07385C14.1317 1.28842 13.511 0.667665 12.7253 0.36527C12.1906 0.166667 11.6268 0.0618767 11.0561 0.0548906C10.0895 4.17233e-07 9.83963 0 7.40371 0C4.96779 0 4.70091 0.0119765 3.75033 0.0548906C3.18159 0.0628747 2.61584 0.167665 2.08207 0.36527C1.29343 0.666667 0.668703 1.28643 0.363839 2.07385C0.163927 2.61377 0.0599732 3.18264 0.0529764 3.75749C0 4.72455 0 4.97305 0 7.40518C0 9.83632 0.00999546 10.1038 0.0529764 11.0519C0.0619724 11.6208 0.167926 12.1846 0.363839 12.7176C0.668703 13.504 1.29343 14.1248 2.08207 14.4251C2.61584 14.6238 3.18159 14.7285 3.75033 14.7355C4.71789 14.7904 4.96678 14.7904 7.40358 14.7904C9.8385 14.7904 10.1065 14.7794 11.0561 14.7355C11.6268 14.7275 12.1906 14.6238 12.7253 14.4251C13.511 14.1238 14.1317 13.503 14.4366 12.7176ZM12.2396 3.68962C12.8347 3.68962 13.3171 3.20795 13.3171 2.61377C13.3171 2.0196 12.8347 1.53792 12.2396 1.53792C11.6445 1.53792 11.162 2.0196 11.162 2.61377C11.162 3.20795 11.6445 3.68962 12.2396 3.68962ZM7.4347 2.78343C4.88183 2.78343 2.81375 4.8493 2.81375 7.39721C2.81375 9.94611 4.88183 12.012 7.4347 12.012C9.98556 12.012 12.0556 9.94611 12.0556 7.39721C12.0556 4.8493 9.98556 2.78343 7.4347 2.78343Z" fill="#BDBDBD"/>
</svg>
