<svg width="19" height="18" viewBox="0 0 19 18" fill="none" xmlns="http://www.w3.org/2000/svg">
<path d="M16.8666 0H2.13136C1.22961 0 0.5 0.729608 0.5 1.63136V16.3676C0.5 17.2684 1.22961 18 2.13136 18H16.8676C17.7684 18 18.5 17.2694 18.5 16.3676V1.63136C18.499 0.728607 17.7684 0 16.8666 0ZM6.51501 3.49992C7.11251 3.49992 7.61393 3.97231 7.61393 4.57882C7.61393 5.19533 7.11251 5.65972 6.51501 5.65972V5.68174C5.91051 5.68174 5.4241 5.19533 5.4241 4.59283C5.4241 3.98732 5.91051 3.49992 6.51501 3.49992ZM13.8751 13.8606C12.7622 13.8606 12.2228 13.198 12.2228 12.2932C12.2228 12.033 12.2558 11.7598 12.3369 11.4806L12.8653 9.57298C12.9334 9.3648 12.9514 9.16764 12.9514 8.99149C12.9514 8.37598 12.5761 8.00667 11.9796 8.00667C11.2179 8.00667 10.7185 8.55012 10.4583 9.606L9.42444 13.7555H7.61193L7.9392 12.4514C7.40475 13.3251 6.66714 13.8646 5.75438 13.8646C4.65146 13.8646 4.13603 13.232 4.13603 12.2792C4.14203 12.007 4.17106 11.7328 4.23211 11.4676L5.0588 8.09875H3.77973L4.16806 6.66756H7.24562L6.02861 11.4756C5.94854 11.7848 5.91852 12.035 5.91852 12.2142C5.91852 12.5214 6.06664 12.6105 6.30384 12.6666C6.44996 12.6966 7.59992 12.6776 8.22344 11.2894L9.0221 8.09875H7.72702L8.11835 6.69358H10.9077L10.5484 8.31193C11.0328 7.41218 12.0016 6.54846 12.9564 6.54846C13.9692 6.54846 14.8129 7.27706 14.8129 8.66122C14.8129 9.06155 14.7499 9.45788 14.6328 9.8422L14.1123 11.7018C14.0693 11.8899 14.0373 12.049 14.0373 12.1942C14.0373 12.5204 14.1734 12.6786 14.4056 12.6786C14.6438 12.6786 14.9591 12.4974 15.3053 11.5056L16.0139 11.7778C15.5996 13.252 14.8309 13.8606 13.8751 13.8606Z" fill="#BDBDBD"/>
</svg>
