<svg width="18" height="18" viewBox="0 0 18 18" fill="none" xmlns="http://www.w3.org/2000/svg">
<path d="M9.15209 0C9.89457 0 12.4121 0.222703 13.6004 3.06891C13.9978 4.02663 13.9027 5.65446 13.8243 6.96172L13.8224 7.00865C13.8122 7.15446 13.8056 7.28629 13.8001 7.41811C13.857 7.45506 13.953 7.49001 14.1004 7.49001C14.3252 7.47703 14.5948 7.39414 14.8755 7.24933C14.9996 7.17943 15.133 7.16545 15.2234 7.16545C15.3596 7.16545 15.493 7.18842 15.6049 7.23735C15.9417 7.35719 16.1553 7.62184 16.1553 7.91045C16.1674 8.27097 15.8633 8.58455 15.2458 8.8482C15.1796 8.87117 15.0882 8.90912 14.9884 8.94407C14.6498 9.05293 14.133 9.23269 13.9875 9.59421C13.9204 9.77497 13.9418 10.0146 14.0789 10.2903L14.0901 10.3033C14.1349 10.4121 15.2356 13.0945 17.685 13.528C17.8753 13.5629 18.0105 13.7447 17.9994 13.9364C17.9994 13.9963 17.9872 14.0553 17.9658 14.1172C17.7857 14.5736 17.0116 14.9111 15.6059 15.1368C15.562 15.2097 15.5163 15.4384 15.4828 15.5952C15.4622 15.739 15.4268 15.8838 15.383 16.0386C15.3261 16.2563 15.1805 16.3632 14.9669 16.3632H14.9446C14.8447 16.3632 14.7104 16.3402 14.5407 16.3043C14.2711 16.2433 13.968 16.1964 13.5855 16.1964C13.3617 16.1964 13.1378 16.2084 12.9027 16.2563C12.4522 16.3402 12.0595 16.6288 11.6099 16.9654C10.9691 17.4457 10.2397 18 9.13903 18C9.09426 18 9.04949 17.988 9.00285 17.988H8.89185C7.79026 17.988 7.07203 17.4457 6.43215 16.9534C5.9835 16.6158 5.60199 16.3282 5.15147 16.2433C4.91641 16.2084 4.67949 16.1834 4.45656 16.1834C4.05081 16.1834 3.7374 16.2553 3.50234 16.3033C3.34377 16.3382 3.20946 16.3622 3.09659 16.3622C2.81583 16.3622 2.70483 16.1834 2.65819 16.0256C2.61342 15.8718 2.59197 15.713 2.55839 15.5702C2.52294 15.4244 2.4791 15.1748 2.43433 15.1128C0.995076 14.9341 0.220882 14.5965 0.0417916 14.1282C0.0184726 14.0772 0.00261566 14.0083 0.000750136 13.9474C-0.0113758 13.7527 0.124808 13.5739 0.315091 13.5389C2.7636 13.1055 3.86426 10.4241 3.90996 10.3113L3.92209 10.2883C4.05734 10.0117 4.08999 9.76897 4.01163 9.59021C3.86612 9.24168 3.34844 9.06192 3.01358 8.94108C2.92217 8.91811 2.83262 8.88116 2.75334 8.84521C1.92318 8.49567 1.81031 8.0982 1.85602 7.82257C1.92318 7.43908 2.36064 7.18642 2.73188 7.18642C2.84101 7.18642 2.93429 7.20939 3.01917 7.24634C3.33351 7.40113 3.61148 7.48702 3.84747 7.48702C4.02283 7.48702 4.13569 7.43908 4.19539 7.40213L4.15714 6.94474C4.08252 5.63948 3.98738 4.01365 4.38754 3.06092C5.54043 0.228695 8.05236 0.0109853 8.79391 0.0109853L9.10639 0H9.15209Z" fill="#BDBDBD"/>
</svg>
